<svg width="220" height="220" viewBox="0 0 220 220" fill="none" xmlns="http://www.w3.org/2000/svg">
  <defs>
    <linearGradient id="book" x1="44" y1="38" x2="173" y2="190" gradientUnits="userSpaceOnUse">
      <stop stop-color="#F8FFF0"/>
      <stop offset="1" stop-color="#DDF4C4"/>
    </linearGradient>
    <filter id="shadow" x="22" y="24" width="181" height="184" filterUnits="userSpaceOnUse">
      <feDropShadow dx="0" dy="8" stdDeviation="8" flood-color="#246B2C" flood-opacity="0.16"/>
    </filter>
  </defs>
  <g filter="url(#shadow)">
    <path d="M65 50C48 50 38 61 38 78V160C38 177 50 189 67 189H159C172 189 181 180 181 167V74C181 59 171 50 156 50H65Z" fill="url(#book)" stroke="#247A31" stroke-width="6" stroke-linejoin="round"/>
    <path d="M67 51V188" stroke="#247A31" stroke-width="6"/>
    <path d="M50 73H64M50 94H64M50 115H64M50 136H64M50 157H64" stroke="#247A31" stroke-width="5" stroke-linecap="round"/>
    <path d="M91 108C91 96 101 88 112 88C124 88 133 97 133 108" stroke="#17251A" stroke-width="5" stroke-linecap="round"/>
    <circle cx="94" cy="103" r="4" fill="#17251A"/>
    <circle cx="131" cy="103" r="4" fill="#17251A"/>
    <ellipse cx="84" cy="120" rx="10" ry="6" fill="#FFAAA0" fill-opacity="0.72"/>
    <ellipse cx="142" cy="120" rx="10" ry="6" fill="#FFAAA0" fill-opacity="0.72"/>
    <path d="M98 127C106 133 116 133 124 127" stroke="#17251A" stroke-width="4" stroke-linecap="round"/>
    <path d="M110 50C108 32 117 19 137 16C139 34 129 48 110 50Z" fill="#8FD365" stroke="#247A31" stroke-width="5" stroke-linejoin="round"/>
    <path d="M113 49C124 35 133 27 139 18" stroke="#247A31" stroke-width="3" stroke-linecap="round"/>
    <path d="M107 48C95 34 81 29 67 35C73 53 88 58 107 48Z" fill="#B9E890" stroke="#247A31" stroke-width="5" stroke-linejoin="round"/>
    <path d="M105 48C91 43 81 39 69 36" stroke="#247A31" stroke-width="3" stroke-linecap="round"/>
    <path d="M40 142C25 139 18 147 20 158C22 169 33 172 42 167" fill="#F8FFF0"/>
    <path d="M40 142C25 139 18 147 20 158C22 169 33 172 42 167" stroke="#247A31" stroke-width="6" stroke-linecap="round"/>
    <path d="M180 135C195 131 203 139 201 151C200 161 190 166 181 161" fill="#F8FFF0"/>
    <path d="M180 135C195 131 203 139 201 151C200 161 190 166 181 161" stroke="#247A31" stroke-width="6" stroke-linecap="round"/>
  </g>
  <path d="M190 69L194 79L204 83L194 87L190 97L186 87L176 83L186 79L190 69Z" fill="#FFC33D"/>
  <path d="M28 51L31 58L38 61L31 64L28 71L25 64L18 61L25 58L28 51Z" fill="#FFC33D"/>
</svg>
